<?xml version="1.0" encoding="utf-8"?>
<!-- Generator: Adobe Illustrator 16.0.0, SVG Export Plug-In . SVG Version: 6.00 Build 0)  -->
<!DOCTYPE svg PUBLIC "-//W3C//DTD SVG 1.1//EN" "http://www.w3.org/Graphics/SVG/1.1/DTD/svg11.dtd">
<svg version="1.1" id="Layer_1" xmlns="http://www.w3.org/2000/svg" xmlns:xlink="http://www.w3.org/1999/xlink" x="0px" y="0px"
	 width="400px" height="170px" viewBox="0 0 400 170" enable-background="new 0 0 400 170" xml:space="preserve">
<g>
	<path d="M192.856,75.818c-2.065-1.779-4.736-2.763-8.019-2.954c-2.811-0.186-5.251,0.563-7.312,2.254
		c-2.065,1.686-3.729,3.82-4.995,6.397c-0.802,1.634-1.393,3.381-1.818,5.221c-0.025,0.066-0.057,0.123-0.08,0.192
		c-0.375,1.223-0.962,2.816-1.758,4.785c-0.796,1.969-1.641,3.866-2.531,5.696c-0.893,1.826-1.806,3.399-2.743,4.711
		c-0.938,1.313-1.688,1.969-2.25,1.969c-0.376,0-0.542-0.608-0.492-1.827c0.045-1.219,0.187-2.742,0.421-4.573
		c0.233-1.827,0.514-3.866,0.843-6.117c0.329-2.25,0.68-4.407,1.055-6.47c0.373-2.06,0.679-3.891,0.915-5.484
		c0.233-1.594,0.397-2.719,0.492-3.375c0.093-1.408-0.281-2.413-1.125-3.024c-0.844-0.608-1.877-0.916-3.095-0.916
		c-1.219,0-2.485,0.307-3.796,0.916c-1.314,0.611-2.299,1.385-2.954,2.32c-0.471,0.563-1.104,1.456-1.899,2.671
		c-0.797,1.22-1.665,2.558-2.602,4.01c-0.939,1.455-1.877,2.977-2.813,4.57c-0.937,1.597-1.687,3.047-2.25,4.36
		c0.188-1.874,0.374-3.607,0.563-5.205c0.186-1.594,0.373-2.671,0.562-3.233c0.468-1.217,0.328-2.156-0.422-2.815
		c-0.751-0.655-1.712-0.983-2.883-0.983c-1.174,0-2.438,0.261-3.797,0.773c-1.36,0.516-2.369,1.245-3.024,2.179
		c-0.562,0.659-1.173,1.547-1.828,2.674c-0.657,1.125-1.29,2.369-1.898,3.726c-0.611,1.36-1.197,2.742-1.758,4.148
		c-0.564,1.408-1.034,2.77-1.408,4.079c0-0.935,0.093-2.461,0.282-4.568c0.187-2.111,0.422-4.336,0.703-6.683
		c0.282-2.343,0.609-4.64,0.984-6.894c0.375-2.247,0.704-4.027,0.984-5.342c0.282-1.126-0.117-1.849-1.194-2.179
		c-1.079-0.331-2.345-0.284-3.798,0.139c-1.454,0.425-2.883,1.22-4.289,2.393c-1.406,1.172-2.298,2.787-2.672,4.85
		c-0.281,1.877-0.422,4.218-0.422,7.033c0,0.495,0.014,0.999,0.019,1.498c-0.006,0.017-0.014,0.031-0.019,0.049
		c-0.188,1.033-0.611,2.532-1.266,4.501c-0.658,1.97-1.384,3.938-2.179,5.907c-0.798,1.969-1.596,3.683-2.391,5.133
		c-0.798,1.455-1.478,2.18-2.04,2.18c-0.752,0-1.245-0.843-1.477-2.532c-0.235-1.685-0.306-3.701-0.211-6.048
		c0.093-2.339,0.304-4.78,0.633-7.311c0.327-2.532,0.679-4.643,1.055-6.331c0.186-1.217-0.049-2.272-0.704-3.165
		c-0.657-0.888-1.501-1.548-2.531-1.969c-1.034-0.421-2.11-0.583-3.236-0.489c-1.125,0.091-2.062,0.561-2.812,1.405
		c-0.657-1.127-1.477-2.155-2.462-3.094c-0.984-0.937-2.134-1.548-3.445-1.828c-3.47-0.655-6.423-0.119-8.861,1.617
		c-2.439,1.735-4.383,4.103-5.836,7.101c-1.455,3.003-2.413,6.378-2.883,10.127c-0.469,3.752-0.423,7.362,0.141,10.83
		c0.562,3.471,1.639,6.518,3.235,9.144c1.592,2.623,3.748,4.31,6.469,5.062c1.499,0.375,3.236,0.233,5.205-0.422
		c2.062-0.843,3.75-2.18,5.063-4.007c1.312-1.831,2.342-3.867,3.094-6.12c1.217,2.532,3.186,4.175,5.907,4.924
		c1.688,0.47,3.257,0.281,4.711-0.561c1.454-0.848,2.766-2.043,3.939-3.59c1.17-1.547,2.202-3.326,3.093-5.342
		c0.13-0.293,0.239-0.575,0.364-0.865c0.02,0.377,0.039,0.771,0.059,1.143c0.141,2.675,0.163,4.809,0.07,6.401
		c-0.094,1.405,0.352,2.439,1.336,3.095c0.984,0.654,2.11,0.985,3.375,0.985c1.266,0,2.438-0.308,3.517-0.916
		c1.077-0.609,1.71-1.521,1.899-2.742c0.186-1.124,0.513-2.673,0.984-4.642c0.468-1.969,1.006-3.888,1.617-5.766
		c0.609-1.874,1.197-3.562,1.759-5.063c0.562-1.497,1.077-2.342,1.547-2.532c0.092,0.282,0.116,1.056,0.07,2.321
		c-0.048,1.267-0.07,2.675-0.07,4.219c0,1.547,0.046,3.144,0.142,4.782c0.091,1.644,0.28,2.934,0.562,3.869
		c0.281,0.938,0.819,1.405,1.617,1.405c0.796,0,1.664-0.21,2.603-0.632c0.935-0.422,1.758-0.983,2.46-1.689
		c0.703-0.702,1.147-1.337,1.336-1.897v0.139c0.281-0.654,0.844-1.897,1.688-3.726c0.844-1.826,1.759-3.704,2.743-5.628
		c0.984-1.918,1.944-3.675,2.882-5.274c0.937-1.592,1.639-2.479,2.11-2.668c-0.282,0.75-0.562,1.895-0.844,3.443
		c-0.282,1.547-0.516,3.305-0.703,5.274c-0.19,1.969-0.236,3.963-0.141,5.979c0.092,2.017,0.398,3.821,0.914,5.413
		c0.516,1.597,1.359,2.814,2.532,3.656c1.172,0.848,2.742,1.081,4.712,0.706c1.78-0.283,3.516-1.407,5.204-3.376
		c1.688-1.97,3.235-4.172,4.641-6.609c0.362-0.628,0.67-1.247,1.004-1.872c0.81,2.517,2.202,4.647,4.199,6.371
		c2.062,1.782,4.828,2.673,8.298,2.673c3.095,0,5.744-0.845,7.945-2.532c2.203-1.688,3.915-3.798,5.135-6.329
		c1.218-2.532,1.897-5.274,2.04-8.228c0.141-2.953-0.258-5.741-1.195-8.371C196.418,79.806,194.917,77.604,192.856,75.818z
		 M99.116,95.58c-0.421,2.862-1.033,5.464-1.828,7.807c-0.797,2.347-1.736,4.27-2.813,5.767c-1.078,1.501-2.229,2.156-3.445,1.969
		c-1.22-0.188-2.134-1.127-2.742-2.812c-0.611-1.689-0.986-3.729-1.125-6.122c-0.141-2.389-0.049-4.921,0.28-7.592
		c0.328-2.671,0.867-5.136,1.618-7.384c0.75-2.252,1.71-4.056,2.884-5.416c1.17-1.359,2.506-1.899,4.008-1.615
		c1.03,0.187,1.803,1.03,2.32,2.531c0.514,1.5,0.866,3.048,1.055,4.641C99.607,89.979,99.538,92.722,99.116,95.58z M189.198,95.862
		c-0.281,1.734-0.75,3.141-1.405,4.219c-0.657,1.078-1.501,1.573-2.532,1.477c-1.22-0.092-2.204-0.748-2.953-1.969
		c-0.752-1.217-1.316-2.694-1.689-4.432c-0.375-1.731-0.563-3.608-0.563-5.625c0-2.014,0.165-3.866,0.495-5.555
		c0.328-1.688,0.82-3.096,1.477-4.22c0.655-1.125,1.451-1.687,2.389-1.687c1.03,0,1.921,0.608,2.671,1.827
		c0.751,1.223,1.337,2.722,1.759,4.501c0.423,1.783,0.657,3.705,0.705,5.769C189.597,92.229,189.48,94.127,189.198,95.862z"/>
	<path d="M273.09,114.568c0.986,0.701,2.11,1.076,3.375,1.124c1.267,0.047,2.394-0.234,3.377-0.844
		c0.985-0.608,1.477-1.57,1.477-2.882c-0.096-2.062-0.119-4.642-0.07-7.735c0.045-3.096,0.116-6.423,0.211-9.985
		c0.372-0.563,0.915-1.104,1.617-1.618c0.703-0.516,1.405-0.914,2.109-1.198c0.704-0.279,1.288-0.421,1.758-0.421
		c0.469,0,0.705,0.235,0.705,0.705c-0.189,1.03-0.352,2.671-0.494,4.923c-0.141,2.249,0,4.499,0.423,6.75
		c0.422,2.25,1.267,4.174,2.532,5.767c1.267,1.596,3.306,2.298,6.116,2.111c2.344-0.188,4.453-1.27,6.329-3.238
		s3.494-4.24,4.854-6.821c1.357-2.577,2.53-5.132,3.516-7.664c0.983-2.532,1.759-4.452,2.32-5.766
		c0.374-0.847,0.445-1.522,0.212-2.042c-0.236-0.513-0.635-0.865-1.195-1.051c-0.563-0.188-1.175-0.166-1.83,0.068
		c-0.655,0.236-1.174,0.773-1.547,1.617c-0.563,1.125-1.22,2.581-1.969,4.363c-0.753,1.78-1.547,3.539-2.392,5.274
		c-0.843,1.733-1.688,3.303-2.532,4.711c-0.843,1.405-1.688,2.39-2.532,2.952c-0.75,0.472-1.382,0.354-1.897-0.353
		c-0.517-0.702-0.867-1.732-1.056-3.096c-0.188-1.354-0.233-2.927-0.14-4.711c0.092-1.78,0.422-3.516,0.985-5.203
		c0.653-2.154,0.537-3.562-0.354-4.218c-0.891-0.655-2.062-0.916-3.516-0.774c-1.454,0.142-2.954,0.472-4.501,0.984
		c-1.547,0.517-2.65,0.867-3.306,1.056c0.563-0.845,1.642-1.83,3.235-2.955c1.593-1.124,3.282-2.342,5.063-3.656
		c1.78-1.312,3.493-2.671,5.134-4.076c1.641-1.408,2.789-2.816,3.445-4.222c0.563-1.218,0.282-2.157-0.842-2.812
		c-1.127-0.655-2.463-0.983-4.011-0.983c-1.545,0-3.047,0.278-4.5,0.841c-1.454,0.563-2.228,1.36-2.319,2.39
		c-0.378,2.253-1.476,4.525-3.306,6.822c-1.829,2.297-3.822,4.761-5.977,7.385c0.091-4.313,0.23-8.602,0.422-12.87
		c0.187-4.268,0.372-8.179,0.562-11.744c0.186-3.562,0.374-6.561,0.562-9.001c0.187-2.438,0.327-3.985,0.423-4.642
		c0.186-1.03-0.281-1.734-1.408-2.11c-1.124-0.373-2.391-0.373-3.798,0c-1.405,0.376-2.695,1.104-3.867,2.182
		c-1.173,1.079-1.712,2.509-1.617,4.289c0,1.033,0,2.884,0,5.556c0,2.671-0.023,5.814-0.068,9.423
		c-0.051,3.612-0.119,7.504-0.213,11.675c-0.095,4.17-0.186,8.275-0.28,12.306c-0.094,4.034-0.213,7.83-0.352,11.392
		c-0.141,3.566-0.257,6.519-0.354,8.861C271.612,112.812,272.104,113.864,273.09,114.568z"/>
	<path d="M321.261,108.59c1.969,0.471,3.866,0.21,5.694-0.773c1.829-0.984,2.835-2.646,3.024-4.993
		c0.186-2.154-0.472-4.031-1.969-5.625c-1.502-1.592-3.33-2.622-5.484-3.094c-2.159-0.281-4.059,0.067-5.698,1.053
		c-1.642,0.986-2.555,2.696-2.742,5.137c-0.188,2.157,0.492,3.961,2.039,5.412C317.672,107.162,319.383,108.122,321.261,108.59z"/>
	<path d="M336.518,113.864c1.266,2.673,3.163,4.01,5.695,4.01c2.72,0,5.063-1.223,7.032-3.657c1.968-2.441,3.657-5.298,5.063-8.58
		c0.401-0.935,0.777-1.872,1.139-2.813c0.176,1.331,0.406,2.574,0.688,3.729c0.562,2.299,1.405,4.149,2.532,5.555
		c1.125,1.404,2.577,2.11,4.36,2.11c2.718,0,5.062-1.034,7.031-3.095c1.969-2.062,3.656-4.501,5.062-7.312
		c1.408-2.814,2.58-5.718,3.518-8.722c0.936-2.999,1.688-5.437,2.251-7.312c0.279-0.847,0.211-1.522-0.212-2.042
		c-0.421-0.513-0.938-0.841-1.545-0.983c-0.611-0.142-1.246-0.068-1.901,0.21c-0.656,0.283-1.077,0.846-1.266,1.691
		c-0.281,0.75-0.845,2.179-1.687,4.289c-0.845,2.107-1.783,4.268-2.812,6.47c-1.033,2.201-2.04,4.147-3.025,5.836
		c-0.983,1.688-1.757,2.532-2.32,2.532c-0.658,0-1.079-1.196-1.267-3.59c-0.188-2.389-0.232-5.387-0.14-9
		c0.092-3.608,0.282-7.455,0.563-11.534c0.282-4.079,0.609-7.805,0.984-11.18h4.219c1.499,0,2.671-0.281,3.516-0.842
		c0.846-0.563,1.266-1.198,1.266-1.899c0-0.706-0.399-1.36-1.194-1.97c-0.799-0.608-2.088-0.916-3.868-0.916h-3.374l0.703-3.655
		c0.281-1.5-0.12-2.718-1.198-3.656c-1.078-0.938-2.319-1.453-3.726-1.549c-1.407-0.091-2.721,0.306-3.938,1.197
		c-1.222,0.892-1.83,2.459-1.83,4.711c0,0.472-0.022,1.009-0.069,1.616c-0.049,0.613-0.07,1.245-0.07,1.899h-3.797
		c-1.688,0-2.905,0.282-3.656,0.844c-0.751,0.562-1.102,1.175-1.055,1.83c0.048,0.655,0.469,1.263,1.266,1.827
		c0.796,0.562,1.945,0.844,3.445,0.844h3.376c-0.189,2.722-0.424,5.694-0.705,8.931c-0.206,2.361-0.342,4.705-0.447,7.042
		c-0.289,0.774-0.839,2.355-1.66,4.774c-0.844,2.482-1.759,5.041-2.744,7.663c-0.983,2.626-1.969,4.973-2.952,7.033
		c-0.985,2.062-1.759,3.094-2.32,3.094c-0.939,0-1.57-1.242-1.898-3.726c-0.33-2.485-0.469-5.673-0.421-9.563
		c0.045-3.893,0.21-8.137,0.491-12.73c0.282-4.595,0.609-9.022,0.984-13.291c0.374-4.265,0.773-8.039,1.195-11.322
		c0.422-3.281,0.726-5.486,0.913-6.61c0.282-1.499-0.116-2.717-1.194-3.656c-1.079-0.936-2.345-1.453-3.798-1.547
		c-1.454-0.093-2.79,0.304-4.009,1.195c-1.22,0.891-1.829,2.461-1.829,4.71c0,2.064-0.187,5.089-0.561,9.073
		c-0.375,3.987-0.754,8.393-1.126,13.22c-0.375,4.83-0.633,9.775-0.774,14.836c-0.14,5.064,0.025,9.661,0.492,13.785
		C334.384,107.794,335.251,111.193,336.518,113.864z"/>
	<path d="M81.269,71.61c3.76-1.527,7.485-3.294,11.171-5.305c3.689-2.011,6.938-4.259,9.753-6.745
		c2.817-2.486,4.995-5.273,6.539-8.364c1.542-3.088,2.036-6.455,1.479-10.1c-0.388-2.523-1.317-4.723-2.781-6.591
		c-1.466-1.867-3.285-3.436-5.456-4.702c-2.174-1.263-4.571-2.283-7.203-3.061c-2.63-0.778-5.308-1.375-8.038-1.794
		c-2.729-0.42-5.375-0.698-7.945-0.837s-4.882-0.203-6.936-0.194c-2.426,0.07-4.953,0.188-7.589,0.362
		c-2.637,0.178-5.147,0.446-7.524,0.811c-3.942,0.604-7.896,1.478-11.869,2.616c-3.973,1.142-7.833,2.514-11.582,4.114
		c-3.75,1.602-7.331,3.445-10.74,5.525c-3.409,2.083-6.48,4.398-9.209,6.945c-0.211,0.11-0.58,0.432-1.107,0.97
		c-0.527,0.536-1.061,1.15-1.601,1.843c-0.541,0.692-1.023,1.411-1.439,2.159c-0.417,0.75-0.586,1.385-0.505,1.903
		c0.136,0.894,1.097,1.202,2.88,0.93c0.594-0.091,1.269-0.289,2.02-0.597c0.755-0.301,1.817-0.808,3.193-1.514
		c1.375-0.704,3.188-1.647,5.445-2.832c2.252-1.182,5.174-2.732,8.762-4.651c4.489-1.98,9.073-3.73,13.75-5.244
		c1.748-0.566,3.519-1.062,5.302-1.521C49.69,42.989,51.667,66.5,51.667,66.5c0.133,1.88,0.261,3.575,0.377,5.077
		c0.116,1.504,0.108,2.571-0.023,3.197c-2.983,0.916-5.889,1.799-8.727,2.651c-2.835,0.852-5.657,1.57-8.457,2.153
		c-1.02,0.307-2.625,0.745-4.822,1.31c-2.196,0.562-4.437,1.208-6.723,1.941c-2.284,0.733-4.262,1.492-5.928,2.28
		c-1.667,0.785-2.456,1.476-2.364,2.068c0.091,0.6,0.623,0.974,1.598,1.127c0.976,0.155,2.157,0.164,3.542,0.029
		c1.387-0.135,2.874-0.363,4.462-0.684c1.586-0.319,3.078-0.642,4.474-0.971c1.392-0.327,2.552-0.6,3.471-0.817
		c0.917-0.216,1.419-0.291,1.505-0.231c3.076-0.773,6.171-1.553,9.286-2.333c3.114-0.781,6.279-1.605,9.493-2.48
		c0.57,3.716,1.116,6.994,1.642,9.917h-0.004c0,0,2.971,22.851,6.919,25.337c3.948,2.485,1.312-28.775,1.312-28.775L62.691,87.3
		c-0.019-0.309-0.025-0.601-0.048-0.909c-0.133-1.933-0.278-3.688-0.434-5.305c-0.06-0.76-0.138-1.76-0.231-2.937
		c2.245-0.646,5.069-1.515,8.48-2.602C73.903,74.449,77.509,73.14,81.269,71.61z M61.46,71.604
		c-0.012-0.136-0.022-0.272-0.033-0.406c-0.04-0.513-0.082-1.03-0.124-1.562c0,0.015,0,0.032,0,0.049L60.02,53.595
		c0.003,0.009,0.005,0.015,0.007,0.021c-0.77-9.635-1.458-18.227-1.558-19.479c-0.006-0.099-0.012-0.161-0.012-0.166
		c0.123-0.02,0.245-0.044,0.369-0.063c0.094-0.016,0.188-0.036,0.282-0.049c2.305-0.352,4.941-0.661,7.907-0.926
		c2.964-0.264,5.991-0.385,9.075-0.362c3.085,0.021,6.119,0.204,9.101,0.547c2.98,0.342,5.677,0.918,8.083,1.728
		c2.407,0.813,4.414,1.876,6.022,3.188c1.61,1.314,2.569,2.973,2.875,4.98c0.388,2.526-0.121,4.909-1.531,7.14
		c-1.406,2.232-3.35,4.335-5.825,6.313c-2.476,1.976-5.298,3.779-8.474,5.405c-3.174,1.63-6.338,3.083-9.489,4.366
		c-3.153,1.28-6.123,2.381-8.91,3.303C65.208,70.445,63.05,71.132,61.46,71.604z"/>
	<path d="M374.258,126.298c-17.243,2.41-79.324,6.809-109.889-2.853c-0.001-0.001-0.003-0.001-0.006-0.003l0.102-12.777
		c0.033-1.597,0.072-3.247,0.117-4.959c0.093-3.608,0.212-7.171,0.351-10.687c0.143-3.516,0.305-6.821,0.493-9.917
		c0.187-3.094,0.423-5.626,0.705-7.595c0.091-1.125-0.378-1.969-1.408-2.531c-1.033-0.565-2.205-0.82-3.518-0.773
		c-1.313,0.049-2.53,0.374-3.654,0.983c-1.127,0.61-1.689,1.479-1.689,2.604c-0.03,0.883-0.069,1.906-0.108,2.991
		c-0.057,0.494-0.138,1.059-0.242,1.72c-0.235,1.453-0.517,3.094-0.845,4.924c-0.33,1.826-0.729,3.704-1.194,5.623
		c-0.47,1.924-0.964,3.683-1.477,5.274c-0.519,1.597-1.032,2.862-1.549,3.799c-0.517,0.938-1.054,1.313-1.618,1.125
		c-0.561-0.187-0.867-1.335-0.912-3.446c-0.049-2.11,0.045-4.688,0.281-7.735c0.233-3.047,0.492-6.304,0.773-9.775
		c0.281-3.468,0.516-6.701,0.702-9.703c0.092-1.031-0.446-1.805-1.615-2.321c-1.175-0.516-2.464-0.707-3.869-0.565
		c-1.405,0.142-2.697,0.611-3.869,1.407c-1.172,0.798-1.807,2.041-1.897,3.728c0,2.627-0.048,5.368-0.142,8.228
		c-0.042,1.282-0.071,2.543-0.093,3.795c-0.51,1.05-1.084,2.332-1.731,3.872c-0.753,1.78-1.547,3.539-2.394,5.274
		c-0.841,1.733-1.686,3.303-2.53,4.711c-0.843,1.405-1.688,2.39-2.532,2.952c-0.75,0.472-1.382,0.354-1.897-0.353
		c-0.518-0.702-0.868-1.732-1.057-3.096c-0.187-1.354-0.232-2.927-0.139-4.711c0.092-1.78,0.422-3.516,0.985-5.203
		c0.654-2.154,0.537-3.562-0.354-4.218c-0.891-0.655-2.062-0.916-3.516-0.774c-1.455,0.142-2.954,0.472-4.501,0.984
		c-1.547,0.517-2.651,0.867-3.306,1.056c0.563-0.845,1.641-1.83,3.234-2.955c1.594-1.124,3.282-2.342,5.064-3.656
		c1.78-1.312,3.492-2.671,5.134-4.076c1.64-1.408,2.789-2.816,3.445-4.222c0.563-1.218,0.282-2.157-0.842-2.812
		c-1.127-0.655-2.463-0.983-4.012-0.983c-1.544,0-3.046,0.278-4.499,0.841c-1.454,0.563-2.229,1.36-2.319,2.39
		c-0.378,2.253-1.477,4.525-3.306,6.822c-1.83,2.297-3.823,4.761-5.977,7.385c0.091-4.313,0.229-8.602,0.421-12.87
		c0.188-4.268,0.372-8.179,0.562-11.744c0.186-3.562,0.373-6.561,0.562-9.001c0.188-2.438,0.328-3.985,0.423-4.642
		c0.186-1.03-0.28-1.734-1.407-2.11c-1.124-0.373-2.391-0.373-3.799,0c-1.405,0.376-2.694,1.104-3.866,2.182
		c-1.173,1.079-1.712,2.509-1.618,4.289c0,1.033,0,2.884,0,5.556c0,2.671-0.023,5.814-0.068,9.423
		c-0.051,3.612-0.118,7.504-0.213,11.675c-0.094,4.17-0.186,8.275-0.279,12.306c-0.094,4.034-0.213,7.83-0.352,11.392
		c-0.141,3.566-0.257,6.519-0.354,8.861c0,1.408,0.492,2.461,1.478,3.165c0.986,0.701,2.11,1.076,3.375,1.124
		c1.266,0.047,2.394-0.234,3.377-0.844c0.984-0.608,1.478-1.57,1.478-2.882c-0.098-2.062-0.12-4.642-0.071-7.735
		c0.045-3.096,0.116-6.423,0.21-9.985c0.372-0.563,0.916-1.104,1.618-1.618c0.703-0.516,1.405-0.914,2.109-1.198
		c0.704-0.279,1.288-0.421,1.757-0.421c0.47,0,0.706,0.235,0.706,0.705c-0.19,1.03-0.353,2.671-0.494,4.923
		c-0.141,2.249,0,4.499,0.423,6.75c0.422,2.25,1.266,4.174,2.532,5.767c1.266,1.596,3.306,2.298,6.116,2.111
		c2.344-0.188,4.453-1.27,6.329-3.238s3.493-4.24,4.854-6.821c0.471-0.896,0.892-1.783,1.317-2.671
		c0.006,0.159,0.009,0.334,0.015,0.492c0.094,2.344,0.282,4.22,0.563,5.627c0.28,1.404,0.891,2.65,1.829,3.726
		c0.936,1.08,1.99,1.9,3.164,2.464c1.172,0.561,2.392,0.794,3.657,0.699c1.267-0.091,2.367-0.608,3.306-1.547
		c1.687-1.778,2.999-3.938,3.938-6.47c-0.103,1.778-0.18,3.53-0.267,5.295l-0.018-0.003l-1.141,12.889
		c-5.108-0.276-9.46,0.388-12.805,2.092l0.006-0.021c0,0-0.113,0.055-0.309,0.161c-0.077,0.042-0.168,0.094-0.268,0.151
		c-0.34,0.196-0.805,0.482-1.33,0.859c-0.102,0.071-0.201,0.144-0.306,0.222c-0.656,0.491-1.379,1.118-2.059,1.86
		c-2.421,2.641-4.27,6.83-0.396,12.372c0.168,0.24,0.339,0.481,0.528,0.726c0.009,0.012,0.017,0.025,0.026,0.037v-0.002
		c0.982,1.189,2.416,2.253,4.435,3.09h-0.023c0.077,0.032,0.15,0.052,0.228,0.084c0.126,0.05,0.24,0.104,0.371,0.152
		c0.039,0.01,0.087,0.021,0.126,0.03c9.251,3.473,15.461-0.537,15.461-0.537h-0.024c0.879-0.422,1.739-0.95,2.529-1.579
		c1.169-0.932,2.155-2.115,2.743-3.613c0.001,0.002,0.012,0.005,0.012,0.005s0.127-0.283,0.349-0.671
		c2.387-3.686,9.646-3.894,12.721-3.804c1.052,0.066,2.299,0.145,2.532,0.159c19.711,1.46,77.452,3.097,100.23-4.537
		C378.091,128.943,391.502,123.888,374.258,126.298z M249.552,138.684c-1.556,0.078-3.099-0.265-4.636-1.025
		c-1.533-0.761-2.481-1.992-2.841-3.7c-0.275-1.251-0.21-2.32,0.131-3.242c0.184-0.495,0.423-0.96,0.784-1.361
		c1.036-1.142,2.418-1.858,4.15-2.144c1.773-0.143,3.424,0.225,4.955,1.103c1.529,0.879,2.474,2.173,2.836,3.878
		c0.401,1.854,0.016,3.375-1.165,4.56c-0.24,0.242-0.496,0.445-0.755,0.642C251.998,138.163,250.851,138.603,249.552,138.684z"/>
</g>
<path d="M54.809,93.126c0,0,3.583,27.517,8.218,28.814c4.635,1.298-1.049-43.792-1.049-43.792l-2.428-5.16"/>
<path stroke="#231F20" stroke-width="6" d="M265.622,123.828"/>
</svg>
